<?xml version="1.0" encoding="utf-8"?>
<!-- Generator: Adobe Illustrator 22.0.0, SVG Export Plug-In . SVG Version: 6.00 Build 0)  -->
<svg version="1.1" id="Layer_1" xmlns="http://www.w3.org/2000/svg" xmlns:xlink="http://www.w3.org/1999/xlink" x="0px" y="0px"
	 viewBox="0 0 53 77" style="enable-background:new 0 0 53 77;" xml:space="preserve">
<style type="text/css">
	.st0{fill:#FFFFFF;}
	.st1{fill:#010101;}
</style>
<g>
	<path class="st0" d="M14.2,22.5h-0.8c-0.1,0-0.2,0-0.2,0c0.2-0.3,0.2-0.6,0.2-0.8V13c0-0.2,0-0.5-0.2-0.8c0.1,0,1,0,1,0
		c0.1,0,0.2,0,0.2,0c-0.2,0.3-0.2,0.6-0.2,0.8v8.7c0,0.2,0,0.5,0.2,0.8C14.4,22.5,14.3,22.5,14.2,22.5z M20.3,22.5
		c0.2-0.3,0.2-0.6,0.2-0.8V13c0-0.2,0-0.5-0.2-0.8c0.1,0,1,0,1,0c0.1,0,0.2,0,0.2,0c-0.2,0.3-0.2,0.6-0.2,0.8v8.7
		c0,0.2,0,0.5,0.2,0.8c-0.1,0-0.2,0-0.2,0h-0.8C20.5,22.5,20.4,22.5,20.3,22.5z"/>
	<path class="st1" d="M23.1,11.6h-0.6c-0.2,0-0.7,0.1-1.3,0.1h-0.8c-0.3,0-0.5,0-0.8,0c-0.2,0-0.4-0.1-0.5-0.1h-0.6V12
		c0.9,0,1.3,0.3,1.3,1v3.8h-5.3V13c0-0.6,0.5-1,1.3-1v-0.4h-0.6c-0.1,0-0.3,0-0.5,0.1c-0.2,0-0.5,0-0.8,0h-0.8c-0.3,0-0.5,0-0.8,0
		c-0.2,0-0.4-0.1-0.5-0.1h-0.5V12c0.9,0,1.3,0.3,1.3,1v8.7c0,0.6-0.5,1-1.3,1v0.4h0.5c0.2,0,0.7-0.1,1.3-0.1h0.8
		c0.5,0,1.1,0.1,1.3,0.1h0.6v-0.4c-0.9,0-1.3-0.3-1.3-1v-4.3H20v4.3c0,0.6-0.5,1-1.3,1v0.4h0.6c0.2,0,0.7-0.1,1.3-0.1h0.8
		c0.5,0,1.1,0.1,1.3,0.1h0.6v-0.4c-0.9,0-1.3-0.3-1.3-1V13c0-0.6,0.5-1,1.3-1V11.6L23.1,11.6z"/>
</g>
<g>
	<path class="st0" d="M30.1,26.5c-0.3-0.2-0.5-0.4-0.8-0.6c-0.5-0.4-0.9-1-1.1-1.7c-0.3-0.7-0.4-1.4-0.4-2.1v-0.2
		c0-0.8,0.1-1.5,0.4-2.1c0.3-0.7,0.7-1.2,1.1-1.7c0.2-0.2,0.5-0.4,0.8-0.6c-0.9,1-1.4,2.6-1.4,4.4v0.2
		C28.6,23.9,29.2,25.5,30.1,26.5z M35.5,26.5c0.1-0.1,0.2-0.3,0.3-0.4c0.7-1,1.1-2.4,1.1-4v-0.2c0-1.6-0.4-3-1.1-4
		c-0.1-0.1-0.2-0.3-0.3-0.4c0.3,0.2,0.5,0.4,0.7,0.6c0.5,0.4,0.9,1,1.1,1.7c0.3,0.7,0.4,1.4,0.4,2.1v0.2c0,0.8-0.1,1.5-0.4,2.1
		c-0.3,0.7-0.7,1.2-1.1,1.7C36,26.1,35.8,26.3,35.5,26.5z"/>
	<path class="st1" d="M32.8,16.2c-0.7,0-1.4,0.1-2,0.4c-0.7,0.3-1.3,0.7-1.8,1.2c-0.5,0.5-0.9,1.1-1.3,1.8c-0.3,0.7-0.5,1.5-0.5,2.3
		v0.2c0,0.8,0.2,1.6,0.5,2.3c0.3,0.7,0.7,1.3,1.3,1.8c0.5,0.5,1.1,0.9,1.8,1.2s1.3,0.4,2,0.4s1.4-0.1,2-0.4c0.7-0.3,1.3-0.7,1.8-1.2
		c0.5-0.5,0.9-1.1,1.3-1.8c0.3-0.7,0.5-1.5,0.5-2.3v-0.2c0-0.8-0.2-1.6-0.5-2.3c-0.3-0.7-0.7-1.3-1.3-1.8c-0.5-0.5-1.1-0.9-1.8-1.2
		C34.2,16.3,33.5,16.2,32.8,16.2L32.8,16.2z M32.7,27.3c-2.1,0-3.6-2.2-3.6-5.2v-0.2c0-3,1.5-5.2,3.6-5.2c0,0,0,0,0.1,0
		c1.1,0,1.9,0.5,2.6,1.4c0.7,1,1,2.2,1,3.7v0.2c0,1.5-0.3,2.8-1,3.7C34.7,26.8,33.9,27.3,32.7,27.3C32.8,27.3,32.7,27.3,32.7,27.3
		L32.7,27.3z"/>
</g>
<g>
	<path class="st0" d="M23.3,40.8c0.2-0.1,0.3-0.3,0.5-0.5c0,0.2,0,0.3,0,0.5C23.7,40.9,23.5,40.9,23.3,40.8z M16.8,40.8
		c0.1-0.2,0.1-0.5,0.1-0.8v-8.7c0-0.3,0-0.6-0.1-0.8c0.2,0,0.3,0,0.4,0h0.3c0.1,0,0.2,0,0.3,0c-0.1,0.2-0.1,0.5-0.1,0.8v8.8
		c0,0.3,0.1,0.6,0.2,0.7h-0.7C17.1,40.8,16.9,40.8,16.8,40.8z"/>
	<path class="st1" d="M19.2,29.9H19c-0.1,0-0.3,0-0.7,0.1c-0.4,0-0.6,0-0.8,0h-0.3c-0.1,0-0.4,0-0.8,0c-0.4,0-0.6-0.1-0.7-0.1h-0.2
		v0.4c0.4,0,0.7,0.1,0.8,0.2c0.1,0.2,0.2,0.4,0.2,0.7V40c0,0.3-0.1,0.6-0.2,0.8c-0.1,0.2-0.4,0.2-0.8,0.2v0.4h0.2c0.1,0,0.3,0,0.6,0
		c0.3,0,0.6,0,0.9,0h4.9c0.4,0,0.8,0,1.2,0c0.4,0,0.7,0,0.9,0h0.2c0-1,0.1-2.1,0.2-3.3h-0.3C24,39,23.8,39.5,23.5,40
		c-0.3,0.5-0.8,0.7-1.5,0.7h-2.9c-0.7,0-0.9-0.2-0.9-0.6v-8.7c0-0.3,0.1-0.6,0.2-0.7c0.1-0.2,0.4-0.2,0.8-0.2V29.9L19.2,29.9z"/>
</g>
<g>
	<path class="st0" d="M30.9,45.5c0.1-0.2,0.2-0.5,0.2-0.8V36c0-0.3-0.1-0.6-0.2-0.8c0,0,1,0,1.1,0c-0.1,0.2-0.2,0.5-0.2,0.8v8.7
		c0,0.3,0.1,0.6,0.2,0.8H30.9z"/>
	<path class="st1" d="M34.1,34.6h-0.3c-0.2,0-0.5,0-1,0.1c-0.5,0-0.8,0-0.9,0H31c-0.1,0-0.4,0-0.9,0c-0.5,0-0.8-0.1-1-0.1h-0.3V35
		h0.7c0.8,0,1.1,0.3,1.1,1v8.7c0,0.7-0.2,1-1.1,1h-0.8v0.4H29c0.2,0,0.4,0,0.9,0c0.4,0,0.7,0,0.9,0h1.3c0.1,0,0.4,0,0.9,0
		c0.4,0,0.7,0,0.9,0h0.3v-0.4h-0.8c-0.8,0-1.1-0.3-1.1-1V36c0-0.7,0.2-1,1.1-1h0.7V34.6L34.1,34.6z"/>
</g>
<g>
	<path class="st0" d="M12.1,58.8c0.2-0.3,0.2-0.6,0.2-0.8v-8.7c0-0.2,0-0.5-0.2-0.8c0.2,0,0.4,0,0.5,0h0.7c-0.1,0.2-0.2,0.4-0.2,0.7
		V58c0,0.3,0.1,0.5,0.2,0.7h-0.7C12.4,58.7,12.2,58.7,12.1,58.8z M17.9,58c1-1,1.4-2.4,1.4-4.4c0-1.1-0.1-2-0.5-2.8
		c-0.2-0.6-0.6-1.1-1-1.6c0.3,0.2,0.6,0.5,0.9,0.7c0.9,1,1.4,2.3,1.4,3.6c0,1.3-0.5,2.6-1.4,3.6C18.6,57.5,18.3,57.7,17.9,58z"/>
	<path class="st1" d="M11,47.9h-0.5v0.4c0.8,0,1.3,0.3,1.3,1v8.7c0,0.6-0.4,1-1.3,1v0.4H11c0.1,0,0.3,0,0.6,0c0.3,0,0.6,0,0.9,0h2.7
		c0.8,0,1.6-0.2,2.3-0.5c0.7-0.3,1.3-0.7,1.7-1.2c0.9-1,1.5-2.5,1.5-3.9s-0.6-2.9-1.5-3.9c-0.5-0.5-1.1-0.9-1.7-1.2
		C16.8,48.1,16,48,15.2,48h-2.7c-0.1,0-0.4,0-0.8,0C11.4,47.9,11.1,47.9,11,47.9L11,47.9z M14.5,58.7c-0.7,0-0.9-0.2-0.9-0.6v-8.8
		c0-0.3,0.1-0.5,0.2-0.5c0.1-0.1,0.4-0.1,0.8-0.1H15c0.8,0,1.5,0.2,2.1,0.7c0.6,0.4,1,1,1.3,1.8c0.3,0.8,0.4,1.6,0.4,2.6
		c0,2-0.5,3.5-1.7,4.4c-0.6,0.4-1.3,0.7-2.1,0.7H14.5L14.5,58.7z"/>
</g>
<g>
	<path class="st0" d="M29.8,65.5c0.1-0.2,0.2-0.5,0.2-0.6c0-0.2,0-0.4-0.1-0.7l-1-3h0l-2.1-6.1c0,0,0.1,0,0.1,0c0.2,0,0.4,0,0.5,0
		h0.1l3.4,9.6c0.1,0.3,0.3,0.6,0.5,0.8c0,0-0.9,0-0.9,0C30.1,65.5,29.9,65.5,29.8,65.5z M22.4,65.5c0-0.1,0.1-0.1,0.1-0.2
		c0,0.1,0,0.1,0.1,0.2C22.6,65.5,22.5,65.5,22.4,65.5z"/>
	<path class="st1" d="M27.6,54.6h-0.4c-0.1,0-0.3,0-0.5,0c-0.2,0-0.4,0-0.6,0.1h-0.2l-3.4,9.8c-0.3,0.8-0.8,1.1-1.6,1.1v0.4h0.3
		c0.1,0,0.3,0,0.5,0c0.3,0,0.5,0,0.8,0c0.5,0,1,0.1,1.2,0.1h0.6v-0.4c-0.8,0-1.2-0.2-1.2-0.7c0-0.1,0-0.3,0.1-0.4l1-2.8h4.3l0.9,2.6
		c0.1,0.2,0.1,0.4,0.1,0.5c0,0.5-0.3,0.8-1,0.8v0.4H29c0.2,0,0.7-0.1,1.3-0.1H31c0.3,0,0.6,0,0.9,0c0.3,0,0.6,0,0.6,0H33v-0.4
		c-1.1,0-1.6-0.4-1.9-1.1L27.6,54.6L27.6,54.6z M24.3,61.2l1.9-5.5l1.9,5.5H24.3L24.3,61.2z"/>
</g>
<g>
	<path class="st0" d="M37.6,62c0.1-0.2,0.1-0.5,0.1-0.8v-3.1l-3-5.7c-0.2-0.3-0.3-0.5-0.5-0.7c0.1,0,1,0,1,0c0.2,0,0.3,0,0.5,0
		c-0.1,0.2-0.1,0.4-0.1,0.6c0,0.2,0,0.4,0.1,0.6l2.8,5.5v2.8c0,0.3,0,0.6,0.1,0.8H37.6z M41.5,51.9c0,0,0-0.1-0.1-0.1
		c0.1,0,0.1,0,0.2,0C41.6,51.8,41.6,51.9,41.5,51.9z"/>
	<path class="st1" d="M43.2,51.2h-0.4c-0.2,0-0.6,0.1-1.1,0.1c-0.4,0-0.8-0.1-1.1-0.1h-0.5v0.4c0.6,0,1,0.3,1,0.7
		c0,0.1,0,0.3-0.1,0.4l-2.4,4.7l-2.4-4.7c-0.1-0.1-0.1-0.3-0.1-0.4c0-0.4,0.4-0.7,1-0.7v-0.4h-0.5c-0.1,0-0.3,0-0.5,0.1
		c-0.2,0-0.5,0-0.8,0h-0.9c-0.3,0-0.5,0-0.8,0c-0.2,0-0.4-0.1-0.5-0.1h-0.4v0.4c0.7,0,1.2,0.4,1.6,1.1l2.9,5.6v3
		c0,0.3-0.1,0.6-0.2,0.8c-0.1,0.2-0.4,0.2-0.8,0.2h-0.7v0.4h0.3c0.2,0,0.4,0,0.8,0c0.4,0,0.7,0,0.8,0h1.3c0.1,0,0.4,0,0.8,0
		c0.4,0,0.7,0,0.8,0h0.3v-0.4H40c-0.4,0-0.7-0.1-0.8-0.2S39,61.6,39,61.2v-3.4l2.6-5.1c0.4-0.7,0.9-1.1,1.6-1.1V51.2L43.2,51.2z"/>
</g>
<g>
	<path class="st1" d="M20.7,0v0.5c1.7,0,3.5,0.1,5.7,0.3c9.3,0.8,15.8,5.7,19.3,14.7C50,26.3,55.1,42.5,51,57.7
		c-2.2,8.1-6.8,14-13,16.7c-3.1,1.3-6.6,2-10.4,2c-3,0-6.3-0.4-9.8-1.3C11.7,73.8,7.1,72.3,3.4,67c-3.7-5.4-3.9-12.1-0.6-20.6
		c1.3-3.4,1.9-7.1,1.5-10.6c-0.3-2.7-1.1-5.1-2-7.7c-0.3-0.9-0.6-1.8-0.9-2.7c-1.1-3.4-1.1-7.7-0.1-11.6c1.1-4.2,3.3-7.7,6.2-9.8
		c3.2-2.3,7.4-3.4,13.1-3.4V0 M20.7,0c-4.9,0-9.6,0.8-13.4,3.5C4.3,5.6,2,9.2,0.9,13.5c-1,4-1,8.3,0.1,11.9c0.3,0.9,0.6,1.9,0.9,2.8
		c0.9,2.6,1.7,5,2,7.6c0.3,3.5-0.2,7.1-1.5,10.4C-1,54.8-0.8,61.7,3,67.2c3.8,5.5,8.5,7,14.7,8.5c3.5,0.9,6.8,1.3,9.9,1.3
		c3.9,0,7.5-0.7,10.6-2.1c6.3-2.8,11.1-8.9,13.3-17.1c4.1-15.3-1-31.7-5.3-42.6C42.7,6.1,36,1.1,26.5,0.3C24.6,0.1,22.6,0,20.7,0
		L20.7,0z"/>
</g>
<g>
	<path class="st1" d="M20.6,2.7c2,0,4,0.1,5.6,0.3c8.5,0.7,14.2,5,17.4,13.2c4.1,10.6,9.1,26.4,5.2,40.9c-1.2,4.3-4.2,12-11.7,15.3
		c-2.8,1.2-5.9,1.8-9.5,1.8c-2.8,0-6-0.4-9.3-1.2c-5.8-1.4-9.8-2.7-13-7.3C2.1,61,2,54.9,5,47.2c1.5-3.7,2-7.7,1.7-11.6
		c-0.3-2.9-1.2-5.6-2.1-8.3c-0.3-0.9-0.6-1.8-0.9-2.7C1.3,17.2,4.5,8.8,8.9,5.7C11.8,3.7,15.5,2.7,20.6,2.7 M20.6,2.2
		c-4.3,0-8.6,0.6-11.9,3C4.1,8.5,0.8,17.1,3.2,24.7c0.3,0.9,0.6,1.8,0.9,2.7C5,30,5.9,32.7,6.2,35.6C6.6,39.4,6,43.3,4.6,47
		c-3.1,7.9-3,14.1,0.4,19c3.3,4.8,7.4,6.1,13.3,7.5c3.3,0.8,6.5,1.2,9.4,1.2c3.6,0,6.8-0.6,9.7-1.9c7.7-3.4,10.8-11.2,12-15.6
		c4-14.7-1.1-30.6-5.2-41.2C40.8,7.7,35,3.2,26.3,2.5C24.4,2.4,22.5,2.2,20.6,2.2L20.6,2.2z"/>
</g>
</svg>
