<?xml version="1.0" encoding="utf-8"?>
<!-- Generator: Adobe Illustrator 19.0.0, SVG Export Plug-In . SVG Version: 6.00 Build 0)  -->
<svg version="1.1" id="Layer_1" xmlns="http://www.w3.org/2000/svg" xmlns:xlink="http://www.w3.org/1999/xlink" x="0px" y="0px"
	 viewBox="-240 431.9 518.6 138.1" style="enable-background:new -240 431.9 518.6 138.1;" xml:space="preserve">
<style type="text/css">
	.st0{display:none;}
	.st1{display:inline;}
	.st2{display:inline;fill:#FCFCFC;}
	.st3{font-family:'Butler-Black';}
	.st4{font-size:29.8929px;}
	.st5{font-size:122.9019px;}
	.st6{font-family:'Butler-Bold';}
	.st7{font-size:17px;}
</style>
<g id="Layer_1_1_" class="st0">
	<title>dummies-wiley-brand</title>
	<path class="st1" d="M-205.6,474.4c-4.4,0-7.7,1.5-9.9,4.5s-3.3,7.9-3.3,14.7c0,6.7,1.1,11.6,3.3,14.6s5.5,4.5,9.9,4.5
		c9.1,0,13.6-6.4,13.6-19.1S-196.6,474.5-205.6,474.4 M-191.4,519.1c-2.1,3.2-5.1,5.7-8.6,7.2c-3.8,1.7-8,2.6-12.1,2.6
		c-8.9,0-15.8-3-20.6-8.9s-7.3-14.7-7.3-26.3c0-11.7,2.4-20.5,7.3-26.5s11.7-8.9,20.6-8.9c4.1,0,8.1,0.8,11.8,2.5
		c3.4,1.3,6.3,3.7,8.2,6.8v-26.5c0-2.3,1.1-3.4,3.4-3.4h13.8c2.4,0,3.6,1.1,3.6,3.4V524c0,2.4-1.2,3.6-3.6,3.6h-12.2
		c-2,0-3.2-0.9-3.6-2.8L-191.4,519.1z"/>
	<path class="st1" d="M-163.1,463.2c0-2.3,1.2-3.4,3.6-3.4h13.7c2.3,0,3.4,1.1,3.4,3.4v37.2c0,3.8,0.7,6.7,2.1,8.7
		c1.4,2,3.9,2.9,7.4,2.9c3.8,0,6.8-1.2,8.9-3.6s3.2-5.6,3.2-9.6v-35.6c0-2.3,1.2-3.4,3.6-3.4h13.8c2.3,0,3.4,1.1,3.4,3.4v60.7
		c0,2.4-1.1,3.6-3.4,3.6h-12.3c-2.1,0-3.4-0.9-3.7-2.8l-0.9-5.9c-4.2,6.7-10.8,10.1-19.9,10.1c-7.8,0-13.6-2-17.3-5.9
		s-5.6-10.1-5.6-18.5L-163.1,463.2L-163.1,463.2z"/>
	<path class="st1" d="M-30,523.9c0,2.4-1.1,3.6-3.4,3.6h-13.5c-2.3,0-3.4-1.2-3.4-3.6v-37c0-3.8-0.7-6.7-2-8.6s-3.6-2.9-6.8-2.9
		c-3.6,0-6.5,1.2-8.5,3.6s-3,5.5-3,9.4v35.5c0,2.4-1.2,3.6-3.6,3.6h-13.6c-2.4,0-3.6-1.2-3.6-3.6v-60.7c0-2.3,1.2-3.4,3.6-3.4h12.4
		c2.1,0,3.3,0.9,3.6,2.8l1,5.7c4.4-6.7,11.1-10.1,20-10.1c9.4,0,15.7,3.6,18.8,10.7c4.7-7.1,11.9-10.7,21.8-10.7
		c14,0,21,8.3,21,24.9v40.7c0,2.4-1.1,3.6-3.4,3.6H-6.2c-2.4,0-3.6-1.2-3.6-3.6v-36.9c0-7.7-3-11.6-8.9-11.6c-3.6,0-6.4,1.2-8.4,3.5
		c-2,2.6-3.1,5.8-2.9,9.1L-30,523.9L-30,523.9z"/>
	<path class="st1" d="M80.3,523.9c0,2.4-1.1,3.6-3.4,3.6H63.4c-2.3,0-3.4-1.2-3.4-3.6v-37c0-3.8-0.7-6.7-2-8.6s-3.6-2.9-6.8-2.9
		c-3.6,0-6.5,1.2-8.5,3.6s-3,5.5-3,9.4v35.5c0,2.4-1.2,3.6-3.6,3.6H22.7c-2.4,0-3.6-1.2-3.6-3.6v-60.7c0-2.3,1.2-3.4,3.6-3.4H35
		c2.1,0,3.3,0.9,3.6,2.8l1,5.7c4.4-6.7,11.1-10.1,20-10.1c9.4,0,15.7,3.6,18.8,10.7c4.7-7.1,11.9-10.7,21.8-10.7
		c14,0,21,8.3,21,24.9v40.7c0,2.4-1.1,3.6-3.4,3.6h-13.6c-2.4,0-3.6-1.2-3.6-3.6v-36.9c0-7.7-3-11.6-8.9-11.6
		c-3.6,0-6.4,1.2-8.4,3.5c-2,2.6-3.1,5.8-2.9,9.1L80.3,523.9L80.3,523.9z"/>
	<path class="st1" d="M150.7,523.9c0,2.4-1.1,3.6-3.4,3.6h-13.9c-2.3,0-3.4-1.2-3.4-3.6v-59.7c0-2.5,2-4.4,4.4-4.4h11.9
		c2.5,0,4.4,2,4.4,4.4V523.9L150.7,523.9z M129.8,441.5c0-2.4,1.1-3.6,3.4-3.6h14.1c2.3,0,3.4,1.2,3.4,3.6v1.1
		c0,5.7-4.6,10.4-10.4,10.4l0,0H140c-5.7,0-10.4-4.7-10.4-10.4v-1.1H129.8z"/>
	<path class="st1" d="M177,488.8h27.1v-0.9c0-4.8-1.1-8.4-3.3-11.1s-5.4-3.9-9.7-3.9C182.6,472.9,177.9,478.2,177,488.8
		 M212.8,510.6c2.2-1,3.7-0.3,4.6,2.2l2.3,6.7c0.6,1.9-0.1,3.3-2.2,4.3c-7.2,3.5-15.1,5.3-23.2,5.2c-11.8,0-20.9-3.1-27.4-9.2
		c-6.5-6.2-9.7-14.9-9.7-26.2s3-20,9-26.2s14.2-9.2,24.6-9.2c10,0,17.8,3,23.4,8.9c5.6,5.9,8.4,13.9,8.4,23.8v6.2
		c0,2.3-1.2,3.4-3.6,3.4h-41.3c0.6,4,2.7,7.6,5.9,10.1c3.2,2.4,7.4,3.6,12.5,3.6C201.9,514.4,207.6,513.1,212.8,510.6"/>
	<path class="st1" d="M249.8,528.9c-7.6,0.1-15.2-1.1-22.4-3.7c-2.1-0.8-2.9-2.2-2.3-4.2l2.2-7.4c0.5-2.2,2-2.9,4.3-2.2
		c4.7,1.6,9.7,2.4,14.6,2.4c8,0,12-1.9,12-5.7c0-1.9-1.1-3.6-2.7-4.5c-2.9-1.5-5.9-2.8-9.1-3.7c-7-2.4-11.7-4.5-14.1-6.4
		c-4.7-3.5-7-8.7-7-15.5c0-6.6,2.4-11.6,7.1-14.9c4.7-3.3,11.4-5,19.9-5c8.6,0,15.6,1.1,21,3.4c2.1,0.8,2.9,2.3,2.3,4.3l-2.2,7.1
		c-0.7,2.2-2.1,3-4.3,2.3c-4.4-1.4-9-2.1-13.6-2.2c-6.5,0-9.8,1.8-9.8,5.5c0,1.9,1.1,3.6,2.7,4.4c3,1.6,6.1,3,9.4,4.1
		c3.5,1.3,6.2,2.4,8.2,3.3c2.2,1.1,4.3,2.4,6.3,3.9c2.1,1.5,3.8,3.6,4.8,6c1.1,2.6,1.6,5.5,1.5,8.3
		C278.7,522.2,269.1,528.9,249.8,528.9"/>
	<path class="st1" d="M99.7,569.1l-1.3-4.3h-6.9l-1.3,4.3h-3.8l6.4-19.5h4.4l6.3,19.5H99.7z M95,553.3l-2.6,8.6h5.2L95,553.3z"/>
	<path class="st1" d="M113.5,549.6l3.1,15.2l3.6-14.7h3.8l3.6,14.7l3.1-15.2h3.6l-4.5,19.5h-4.2l-3.6-14.6l-3.6,14.6h-4.2l-4.4-19.5
		H113.5L113.5,549.6z"/>
	<path class="st1" d="M138.6,548c1.2,0,2.2,0.9,2.2,2.1c0,1.2-0.9,2.2-2.1,2.2c-1.2,0-2.2-0.9-2.2-2.1l0,0
		C136.4,549,137.3,548,138.6,548C138.5,548,138.5,548,138.6,548z M140.3,554.9v14.2h-3.5v-14.2H140.3z"/>
	<path class="st1" d="M147.9,547.5v21.6h-3.5v-21.6H147.9z"/>
	<path class="st1" d="M163.5,567.1c-1.5,1.6-3.6,2.4-5.8,2.3c-1.6,0.1-3.3-0.4-4.5-1.5s-1.8-2.8-1.8-5.5c0-2.3,0.5-4.6,1.8-6
		c1.2-1.3,3-2,4.7-1.9c4.3,0,5.9,2.8,5.9,6.4c0,0.6-0.1,1.2-0.1,1.8l-8.7,0.1c0,2.4,0.4,3.8,2.9,3.8c1.5,0,2.9-0.6,4-1.6
		L163.5,567.1z M160.2,560.3c0-1.9-0.4-3.1-2.5-3.1s-2.8,1.2-2.8,3.1H160.2L160.2,560.3z"/>
	<path class="st1" d="M174.9,568.2c-1.4,4.7-3.4,7.6-6.8,7.6c-0.9,0-1.7-0.2-2.5-0.6l1.1-2.9c0.4,0.2,0.9,0.3,1.3,0.3
		c1.5,0,2.4-1.1,3.2-3.8h-1.8l-4.4-13.9h3.7l3.3,11.9l3-11.9h3.6L174.9,568.2z"/>
	<path class="st1" d="M194.7,549.6c1.5-0.1,2.9,0.3,4.2,1.2c1,0.9,1.6,2.1,1.5,3.5c0.2,2.1-1.2,4.1-3.3,4.6c2.6,0.4,3.7,2.1,3.7,4.6
		c0.1,1.7-0.6,3.3-1.9,4.3c-1.4,1-3,1.5-4.7,1.4h-6.9v-19.5L194.7,549.6L194.7,549.6z M190.7,557.8h2.4c2,0,3.4-0.6,3.4-3
		c0.1-0.7-0.1-1.3-0.6-1.8c-0.5-0.3-1.2-0.5-1.8-0.4h-3.4L190.7,557.8L190.7,557.8z M190.7,566.1h3.2c0.8,0.1,1.6-0.1,2.3-0.6
		c0.5-0.6,0.8-1.5,0.7-2.3c0-2.1-1-2.6-2.9-2.6h-3.3V566.1L190.7,566.1z"/>
	<path class="st1" d="M207.5,554.9v2.5c0.4-1.6,1.8-2.7,3.4-2.8c0.3,0,0.6,0,0.8,0.1l-0.3,3.4c-0.2,0-0.5-0.1-0.7-0.1
		c-2.5,0-3.1,3.1-3.1,6.2v4.9h-3.5v-14.2H207.5L207.5,554.9z"/>
	<path class="st1" d="M213.3,556.6c1.4-1.4,3.4-2.2,5.5-2c3.8,0,5.7,1.5,5.7,5.3v9.2h-3.1V567c-0.9,1.5-2.6,2.5-4.4,2.4
		c-1.1,0-2.2-0.4-3.1-1.1c-0.8-0.8-1.3-2-1.2-3.2c-0.1-1.4,0.5-2.8,1.7-3.5c1.5-0.9,3.3-1.3,5-1.2h1.8v-0.5c0-2-0.7-2.6-2.5-2.6
		c-1.3-0.1-2.6,0.4-3.5,1.4L213.3,556.6z M219.1,562.8c-1.9,0-3,0.3-3,2.1c0,1.1,0.4,1.8,1.4,1.8c2-0.1,3.6-1.9,3.6-3.9L219.1,562.8
		L219.1,562.8z"/>
	<path class="st1" d="M231.7,554.9v2.5c0.7-1.8,2.5-2.9,4.4-2.9c2.7,0,4.2,1.8,4.2,4.9v9.7h-3.5v-9c0-1.6-0.3-2.4-1.5-2.4
		c-1.8,0-3.4,1.9-3.4,6v5.4h-3.5v-14.3L231.7,554.9L231.7,554.9z"/>
	<path class="st1" d="M256.3,547.5v21.6H253V567c-0.9,1.6-2.6,2.5-4.5,2.5c-1.2,0-2.4-0.5-3.2-1.4c-1.1-1.2-1.6-3-1.6-5.9
		c0-2.6,0.5-4.7,1.8-6.1c1-1.1,2.5-1.6,4-1.6c1.3-0.1,2.5,0.4,3.4,1.3v-8.4L256.3,547.5L256.3,547.5z M251.5,565.3
		c1-1.2,1.5-2.6,1.4-4.1c0.1-1-0.2-2.1-0.9-2.9c-0.6-0.5-1.3-0.8-2.1-0.7c-2.2,0-2.6,1.5-2.6,4.5s0.5,4.4,2,4.4
		C250.2,566.5,251,566,251.5,565.3z"/>
</g>
<g id="Layer_2" class="st0">
	<rect x="-240" y="431.9" class="st2" width="518.6" height="138.1"/>
</g>
<g id="Layer_3" class="st0">
	<text transform="matrix(0.925 0 0 1 159.9937 559.0793)" class="st1 st3 st4">Not War</text>
</g>
<text transform="matrix(0.9649 0 0 1 -245 532.4615)" class="st3 st5">amethyst</text>
<text transform="matrix(1 0 0 1 72 466.6502)" class="st6 st7">make code, not war</text>
</svg>
