<?xml version="1.0" encoding="utf-8"?>
<!-- Generator: Adobe Illustrator 19.0.0, SVG Export Plug-In . SVG Version: 6.00 Build 0)  -->
<svg version="1.1" id="Layer_1" xmlns="http://www.w3.org/2000/svg" xmlns:xlink="http://www.w3.org/1999/xlink" x="0px" y="0px"
	 viewBox="0 0 2000 900" style="enable-background:new 0 0 2000 900;" xml:space="preserve">
<g id="XMLID_1_">
	<path id="XMLID_3_" d="M598.1,502.4v5.7H419.3v-5.7c27.2-7.9,28.6-39.3,28.6-75.8V283c0-40.7-7.1-60-32.2-60
		c-17.9,0-32.9,15-42.2,32.2c1.4,12.2,1.4,16.4,1.4,25v146.5c0,39.3,4.3,69.3,29.3,75.8v5.7H225.6v-5.7
		c27.2-7.9,28.6-39.3,28.6-75.8V283c0-40.7-6.4-60-32.2-60c-15.7,0-29.3,12.2-38.6,27.2v177.3c0,39.3,3.6,67.9,29.3,75.1v5.7H34
		v-5.7c27.2-7.9,27.9-37.9,27.9-75.1V252.9c0-25-7.9-35-37.2-45.8v-5.7l158.7-30v67.9c16.4-37.2,47.9-67.9,86.5-67.9
		c50,0,93.6,17.9,102.9,73.6c15.7-41.5,48.6-73.6,90.8-73.6c57.2,0,105.1,22.9,105.1,108.7v146.5C568.7,466,573,496,598.1,502.4z"/>
	<path id="XMLID_5_" d="M977,462.4c-10,31.5-47.2,52.2-92.2,52.2c0,0-79.4,0-85.8-64.3c-9.3,37.2-45.8,64.3-96.5,64.3
		c-27.2,0-89.4-12.2-89.4-72.9c0-71.5,57.9-85.1,185.2-115.1v-45.8c0-74.3-42.2-114.4-91.5-88.6c0,0-15.7,9.3,8.6,17.9
		c12.2,4.3,20,14.3,25.7,27.2c10.7,26.5-1.4,55-27.9,66.5c-25.7,10-55-2.1-65.8-27.9c-7.1-18.6-3.6-40,8.6-52.9
		c8.6-9.3,21.4-22.2,47.9-36.5c32.2-17.2,67.2-15,67.2-15c93.6,0,145.8,58.6,145.8,143v106.5c0,0,0,51.5,34.3,50
		c0,0,17.9,0,21.4-12.2L977,462.4z M798.3,333.7c-58.6,12.9-57.9,56.5-57.9,90.1c0,0-0.7,47.2,27.9,47.2c12.2,0,22.2-10,30-27.2
		V333.7z"/>
	<path id="XMLID_10_" d="M1687.1,489.6v5.7l-137.3,18.6c-19.3,2.9-20-13.6-20-13.6v-58.6c-5.7,37.2-40.7,72.9-100.1,72.9
		c-56.5,0-115.8-23.6-115.8-109.4V246.5c0-42.9,1.4-49.3-40-55v-5.7l163-14.3v231.6c0,40,10,59.3,46.5,59.3c20,0,39.3-9.3,46.5-40
		V248.6c0-43.6,2.9-52.9-33.6-57.2v-5.7l154.4-14.3v273.1C1650.6,478.8,1657,486,1687.1,489.6z"/>
	<path id="XMLID_12_" d="M1732.4,476c0,0,27.1,38.6,110,38.6c86.4,0,127.2-24.3,127.2-24.3v-93.6h-6.4
		c-14.3,66.5-73.6,111.5-120.7,111.5c-50.7,0-62.2-59.3-7.9-95.1l72.2-43.6c67.2-44.3,85-115.1,41.4-163.7c0,0-26.4-34.3-107.9-34.3
		c-82.2,0-116.4,20-116.4,20v72.9h6.4c12.9-64.3,68.6-86.5,110-86.5c46.4,0,68.6,46.5,6.4,85.8l-72.2,45
		C1709.6,348,1693.1,428.8,1732.4,476z"/>
	<path id="XMLID_8_" d="M1019.4,476c0,0,27.1,38.6,110,38.6c86.4,0,127.2-24.3,127.2-24.3v-93.6h-6.4
		c-14.3,66.5-73.6,111.5-120.7,111.5c-50.7,0-62.2-59.3-7.9-95.1l72.2-43.6c67.2-44.3,85-115.1,41.4-163.7c0,0-26.4-34.3-107.9-34.3
		c-82.2,0-116.4,20-116.4,20v72.9h6.4c12.9-64.3,68.6-86.5,110-86.5c46.4,0,68.6,46.5,6.4,85.8l-72.2,45
		C996.6,348,980.1,428.8,1019.4,476z"/>
</g>
</svg>
