<svg width="112px" height="28px" viewBox="0 0 112 28" version="1.1" xmlns="http://www.w3.org/2000/svg" xmlns:xlink="http://www.w3.org/1999/xlink">
	<path d="M20.4666667,2.095 C19.1541667,0.658 16.7791667,0.042 13.7416667,0.042 L4.92708333,0.042 C4.30520833,0.042 3.77708333,0.476 3.68020833,1.064 L0.009375,23.412 C-0.0635416667,23.852 0.291666667,24.252 0.757291667,24.252 L6.19895833,24.252 L7.56666667,15.929 L7.52395833,16.19 C7.62083333,15.601 8.14583333,15.167 8.765625,15.167 L11.3520833,15.167 C16.4322917,15.167 20.4104167,13.187 21.5729167,7.456 C21.6072917,7.286 21.6364583,7.121 21.6625,6.96 C21.5166667,6.886 21.5166667,6.886 21.6625,6.96 C22.009375,4.842 21.6604167,3.4 20.4666667,2.095" id="Fill-1" fill="#27346A"></path>
	<path d="M87.0916667,12.73 C86.7583333,14.827 85.090625,14.827 83.4770833,14.827 L82.5583333,14.827 L83.203125,10.911 C83.2416667,10.675 83.4541667,10.501 83.703125,10.501 L84.125,10.501 C85.2229167,10.501 86.2604167,10.501 86.7958333,11.101 C87.115625,11.46 87.2125,11.994 87.0916667,12.73 M86.3895833,7.258 L80.3041667,7.258 C79.8875,7.258 79.5333333,7.549 79.4677083,7.943 L77.0072917,22.924 C76.959375,23.219 77.196875,23.487 77.5083333,23.487 L80.63125,23.487 C80.921875,23.487 81.1697917,23.283 81.215625,23.007 L81.9135417,18.76 C81.978125,18.365 82.3333333,18.075 82.7489583,18.075 L84.6739583,18.075 C88.6822917,18.075 90.996875,16.212 91.6010417,12.521 C91.8729167,10.908 91.6114583,9.639 90.825,8.751 C89.959375,7.775 88.425,7.258 86.3895833,7.258" id="Fill-4" fill="#2790C3"></path>
	<path d="M43.6864583,12.73 C43.353125,14.827 41.6854167,14.827 40.071875,14.827 L39.153125,14.827 L39.7979167,10.911 C39.8364583,10.675 40.0489583,10.501 40.2979167,10.501 L40.7197917,10.501 C41.8177083,10.501 42.8552083,10.501 43.390625,11.101 C43.7104167,11.46 43.8072917,11.994 43.6864583,12.73 M42.984375,7.258 L36.8989583,7.258 C36.4822917,7.258 36.128125,7.549 36.0625,7.943 L33.6020833,22.924 C33.5541667,23.219 33.7916667,23.487 34.103125,23.487 L37.009375,23.487 C37.425,23.487 37.7791667,23.196 37.84375,22.802 L38.5083333,18.76 C38.5729167,18.365 38.9270833,18.075 39.34375,18.075 L41.26875,18.075 C45.2770833,18.075 47.5916667,16.212 48.1958333,12.521 C48.4677083,10.908 48.20625,9.639 47.4197917,8.751 C46.5541667,7.775 45.0197917,7.258 42.984375,7.258" id="Fill-5" fill="#27346A"></path>
	<path d="M57.1125,18.108 C56.8302083,19.706 55.509375,20.779 53.8229167,20.779 C52.978125,20.779 52.3010417,20.518 51.8666667,20.024 C51.4354167,19.534 51.2729167,18.836 51.409375,18.059 C51.671875,16.475 53.0145833,15.367 54.675,15.367 C55.503125,15.367 56.175,15.631 56.6177083,16.129 C57.0645833,16.632 57.240625,17.334 57.1125,18.108 M61.1739583,12.662 L58.259375,12.662 C58.009375,12.662 57.796875,12.836 57.7583333,13.074 L57.6302083,13.855 L57.4270833,13.572 C56.7947917,12.693 55.3885417,12.399 53.984375,12.399 C50.7645833,12.399 48.0145833,14.741 47.4791667,18.026 C47.2010417,19.665 47.596875,21.231 48.5645833,22.324 C49.453125,23.328 50.721875,23.746 52.234375,23.746 C54.8302083,23.746 56.26875,22.146 56.26875,22.146 L56.1385417,22.924 C56.0895833,23.219 56.328125,23.486 56.6395833,23.486 L59.2635417,23.486 C59.6802083,23.486 60.034375,23.196 60.0989583,22.802 L61.675,13.225 C61.7239583,12.93 61.4854167,12.662 61.1739583,12.662" id="Fill-6" fill="#27346A"></path>
	<path d="M100.517708,18.108 C100.236458,19.706 98.9145833,20.779 97.228125,20.779 C96.3833333,20.779 95.70625,20.518 95.271875,20.024 C94.840625,19.534 94.678125,18.836 94.8145833,18.059 C95.0770833,16.475 96.4208333,15.367 98.0802083,15.367 C98.9083333,15.367 99.5802083,15.631 100.022917,16.129 C100.469792,16.632 100.645833,17.334 100.517708,18.108 M104.579167,12.662 L101.664583,12.662 C101.415625,12.662 101.203125,12.836 101.163542,13.074 L101.035417,13.855 L100.83125,13.572 C100.201042,12.693 98.79375,12.399 97.3895833,12.399 C94.1697917,12.399 91.4197917,14.741 90.884375,18.026 C90.60625,19.665 91.0020833,21.231 91.9697917,22.324 C92.859375,23.328 94.128125,23.746 95.6395833,23.746 C98.2354167,23.746 99.6739583,22.146 99.6739583,22.146 L99.54375,22.924 C99.4947917,23.219 99.7333333,23.486 100.044792,23.486 L102.66875,23.486 C103.085417,23.486 103.439583,23.196 103.505208,22.802 L105.080208,13.225 C105.129167,12.93 104.890625,12.662 104.579167,12.662" id="Fill-7" fill="#2790C3"></path>
	<path d="M76.69375,12.662 L73.7645833,12.662 C73.484375,12.662 73.2229167,12.796 73.065625,13.019 L69.025,18.731 L67.3125,13.242 C67.2052083,12.898 66.8760417,12.662 66.5020833,12.662 L63.6239583,12.662 C63.2760417,12.662 63.03125,12.991 63.14375,13.307 L66.36875,22.395 L63.3354167,26.504 C63.096875,26.826 63.3375,27.272 63.7489583,27.272 L66.675,27.272 C66.9520833,27.272 67.2114583,27.142 67.3697917,26.924 L77.1104167,13.427 C77.34375,13.104 77.103125,12.662 76.69375,12.662" id="Fill-8" fill="#27346A"></path>
	<path d="M108.013542,7.67 L105.515625,22.924 C105.467708,23.22 105.705208,23.487 106.016667,23.487 L108.529167,23.487 C108.944792,23.487 109.298958,23.196 109.363542,22.802 L111.827083,7.821 C111.875,7.526 111.6375,7.258 111.325,7.258 L108.514583,7.258 C108.264583,7.258 108.052083,7.432 108.013542,7.67" id="Fill-10" fill="#2790C3"></path>
	<path d="M21.6625,6.96 L21.6625,6.96 C21.6364583,7.122 21.6072917,7.286 21.5729167,7.456 C20.4104167,13.186 16.4322917,15.167 11.3520833,15.167 L8.765625,15.167 C8.14479167,15.167 7.62083333,15.601 7.52395833,16.19 L5.82395833,26.538 C5.76041667,26.923 6.07083333,27.273 6.47708333,27.273 L11.0645833,27.273 C11.6083333,27.273 12.0697917,26.893 12.1552083,26.379 L12.2,26.154 L13.0645833,20.894 L13.1197917,20.603 C13.2052083,20.088 13.6666667,19.709 14.209375,19.709 L14.896875,19.709 C19.340625,19.709 22.8208333,17.976 23.8375,12.963 C24.2614583,10.868 24.0416667,9.119 22.91875,7.89 C22.578125,7.518 22.15625,7.211 21.6625,6.96" id="Fill-14" fill="#2790C3"></path>
</svg>